
        <svg xmlns="http://www.w3.org/2000/svg" xmlns:xlink="http://www.w3.org/1999/xlink" version="1.1" width="3181.8181818181824" 
        height="954.5454545454546" viewBox="0 0 3181.8181818181824 954.5454545454546">
			
			<g transform="scale(9.090909090909092) translate(10, 10)">
				<defs id="SvgjsDefs1714"><linearGradient id="SvgjsLinearGradient1721"><stop id="SvgjsStop1722" stop-color="#8f5e25" offset="0"></stop><stop id="SvgjsStop1723" stop-color="#fbf4a1" offset="0.5"></stop><stop id="SvgjsStop1724" stop-color="#8f5e25" offset="1"></stop></linearGradient><linearGradient id="SvgjsLinearGradient1725"><stop id="SvgjsStop1726" stop-color="#8f5e25" offset="0"></stop><stop id="SvgjsStop1727" stop-color="#fbf4a1" offset="0.5"></stop><stop id="SvgjsStop1728" stop-color="#8f5e25" offset="1"></stop></linearGradient></defs><g id="SvgjsG1715" featureKey="symbolContainer" transform="matrix(1,0,0,1,0,0)" fill="url(#SvgjsLinearGradient1721)"><rect width="110" height="85" rx="8"></rect></g><g id="SvgjsG1716" featureKey="symbolFeature-0" transform="matrix(0.9859154929577465,0,0,0.9859154929577465,6.197182158349266,-6.690140845070424)" fill="#113f61"><g xmlns="http://www.w3.org/2000/svg"><g><path d="M49.5,34.2c22.4,0,27.9,13.6,29.8,26.8c0.3,1.7,2.9,3.1,2.9,3.1H16.8c0,0,2.7-1.3,2.9-3.1C21.6,47.8,27.1,34.2,49.5,34.2     M49.5,32.2c-24.8,0-30.1,16.3-31.8,28.6c-0.1,0.3-1,1.1-1.8,1.6c-0.8,0.4-1.3,1.3-1,2.3c0.2,0.9,1,1.5,1.9,1.5h65.5    c0.9,0,1.7-0.6,1.9-1.5c0.2-0.9-0.2-1.8-1.1-2.2c-0.8-0.4-1.8-1.2-1.8-1.6C79.6,48.5,74.4,32.2,49.5,32.2L49.5,32.2z"></path></g><g><path d="M29.5,49c-0.5,0-1.1-0.2-1.5-0.6c-0.8-0.8-0.7-2.1,0.1-2.8c2.4-2.3,5.3-4.3,8.4-5.9c1-0.5,2.2-0.1,2.7,0.8    c0.5,1,0.1,2.2-0.8,2.7c-2.8,1.5-5.3,3.2-7.5,5.3C30.4,48.9,29.9,49,29.5,49z"></path></g><g><path d="M81.1,70.7c0.5,0.8,1.2,1.4,1.9,1.9V76H16v-3.4c0.6-0.5,1.3-1.1,1.9-1.9H81.1 M82.3,68.7H16.7c-0.5,1.3-2,2.4-2.7,2.9v0.2    V78h71v-6.2v-0.2C84.3,71.2,82.7,70.1,82.3,68.7L82.3,68.7z"></path></g><g><rect x="47.5" y="24" width="4" height="6"></rect></g><g><path d="M55,26H44c-1.1,0-2-0.9-2-2s0.9-2,2-2h11c1.1,0,2,0.9,2,2S56.1,26,55,26z"></path></g></g></g><g id="SvgjsG1717" featureKey="nameFeature-0" transform="matrix(0.6623394014427024,0,0,0.6623394014427024,127.61557821797187,23.979202092044922)" fill="url(#SvgjsLinearGradient1725)"><path d="M3.6 37.76 l0 -23.52 c0 -1.36 1.08 -2.44 2.48 -2.44 c1.36 0 2.44 1.08 2.44 2.44 l0 9.4 l13.36 0 l0 -9.4 c0 -1.36 1.08 -2.44 2.44 -2.44 c1.4 0 2.48 1.08 2.48 2.44 l0 23.52 c0 1.36 -1.08 2.44 -2.48 2.44 c-1.36 0 -2.44 -1.08 -2.44 -2.44 l0 -9.56 l-13.36 0 l0 9.56 c0 1.36 -1.08 2.44 -2.44 2.44 c-1.4 0 -2.48 -1.08 -2.48 -2.44 z M43.480000000000004 40.48 c-6.44 0 -11.2 -4.92 -11.2 -10.92 l0 -0.08 c0 -6.04 4.8 -11.04 11.28 -11.04 s11.24 4.92 11.24 10.96 l0 0.08 c0 6 -4.8 11 -11.32 11 z M43.56 36.24 c3.92 0 6.4 -3.04 6.4 -6.68 l0 -0.08 c0 -3.72 -2.68 -6.8 -6.48 -6.8 c-3.88 0 -6.36 3.04 -6.36 6.72 l0 0.08 c0 3.68 2.68 6.76 6.44 6.76 z M66.96000000000001 40.4 c-2.68 0 -5.6 -0.84 -8.04 -2.52 c-0.52 -0.28 -0.92 -0.88 -0.92 -1.68 c0 -1.08 0.84 -1.96 1.96 -1.96 c0.4 0 0.76 0.12 1.04 0.28 c2.04 1.36 4.16 2.04 6.08 2.04 c2.08 0 3.28 -0.88 3.28 -2.28 l0 -0.08 c0 -1.64 -2.24 -2.2 -4.72 -2.96 c-3.12 -0.88 -6.6 -2.16 -6.6 -6.2 l0 -0.08 c0 -4 3.32 -6.44 7.52 -6.44 c2.24 0 4.6 0.64 6.64 1.72 c0.68 0.36 1.16 1 1.16 1.84 c0 1.12 -0.88 1.96 -2 1.96 c-0.4 0 -0.64 -0.08 -0.96 -0.24 c-1.72 -0.88 -3.48 -1.44 -4.96 -1.44 c-1.88 0 -2.96 0.88 -2.96 2.08 l0 0.08 c0 1.56 2.28 2.2 4.76 3 c3.08 0.96 6.56 2.36 6.56 6.16 l0 0.08 c0 4.44 -3.44 6.64 -7.84 6.64 z M79.76 44.2 l0 -23.12 c0 -1.36 1.04 -2.44 2.4 -2.44 s2.44 1.08 2.44 2.44 l0 1.32 c1.56 -2.2 3.76 -3.96 7.2 -3.96 c4.96 0 9.8 3.92 9.8 10.96 l0 0.08 c0 7 -4.8 10.96 -9.8 10.96 c-3.52 0 -5.72 -1.76 -7.2 -3.72 l0 7.48 c0 1.36 -1.08 2.4 -2.44 2.4 c-1.32 0 -2.4 -1.04 -2.4 -2.4 z M90.64 36.24 c3.32 0 6.04 -2.6 6.04 -6.76 l0 -0.08 c0 -4.08 -2.76 -6.76 -6.04 -6.76 s-6.16 2.72 -6.16 6.76 l0 0.08 c0 4.04 2.88 6.76 6.16 6.76 z M106.52 13.440000000000001 l0 -0.24 c0 -1.44 1.2 -2.36 2.76 -2.36 s2.76 0.92 2.76 2.36 l0 0.24 c0 1.44 -1.2 2.4 -2.76 2.4 s-2.76 -0.96 -2.76 -2.4 z M106.88 37.8 l0 -16.72 c0 -1.36 1.04 -2.44 2.4 -2.44 s2.44 1.08 2.44 2.44 l0 16.72 c0 1.36 -1.08 2.4 -2.44 2.4 c-1.32 0 -2.4 -1.04 -2.4 -2.4 z M125.12 40.36 c-3.56 0 -6.08 -1.56 -6.08 -6.2 l0 -11.12 l-0.8 0 c-1.16 0 -2.08 -0.92 -2.08 -2.08 s0.92 -2.08 2.08 -2.08 l0.8 0 l0 -3.6 c0 -1.32 1.08 -2.4 2.44 -2.4 c1.32 0 2.4 1.08 2.4 2.4 l0 3.6 l3.8 0 c1.16 0 2.12 0.92 2.12 2.08 s-0.96 2.08 -2.12 2.08 l-3.8 0 l0 10.36 c0 1.88 0.96 2.64 2.6 2.64 c0.56 0 1.04 -0.12 1.2 -0.12 c1.08 0 2.04 0.88 2.04 2 c0 0.88 -0.6 1.6 -1.28 1.88 c-1.04 0.36 -2.04 0.56 -3.32 0.56 z M140.56 40.44 c-3.96 0 -7.48 -2.28 -7.48 -6.52 l0 -0.08 c0 -4.56 3.56 -6.8 8.72 -6.8 c2.36 0 4.04 0.36 5.68 0.88 l0 -0.52 c0 -3 -1.84 -4.6 -5.24 -4.6 c-1.84 0 -3.36 0.32 -4.68 0.84 c-0.28 0.08 -0.52 0.12 -0.76 0.12 c-1.12 0 -2.04 -0.88 -2.04 -2 c0 -0.88 0.6 -1.64 1.32 -1.92 c2 -0.76 4.04 -1.24 6.8 -1.24 c3.16 0 5.52 0.84 7 2.36 c1.56 1.52 2.28 3.76 2.28 6.52 l0 10.4 c0 1.32 -1.04 2.32 -2.36 2.32 c-1.4 0 -2.36 -0.96 -2.36 -2.04 l0 -0.8 c-1.44 1.72 -3.64 3.08 -6.88 3.08 z M141.92 36.92 c3.2 0 5.64 -1.84 5.64 -4.52 l0 -1.44 c-1.24 -0.48 -2.88 -0.84 -4.8 -0.84 c-3.12 0 -4.96 1.32 -4.96 3.52 l0 0.08 c0 2.04 1.8 3.2 4.12 3.2 z M158.23999999999998 37.8 l0 -24.8 c0 -1.32 1.04 -2.4 2.4 -2.4 s2.44 1.08 2.44 2.4 l0 24.8 c0 1.36 -1.08 2.4 -2.44 2.4 c-1.32 0 -2.4 -1.04 -2.4 -2.4 z M169.32 13.440000000000001 l0 -0.24 c0 -1.44 1.2 -2.36 2.76 -2.36 s2.76 0.92 2.76 2.36 l0 0.24 c0 1.44 -1.2 2.4 -2.76 2.4 s-2.76 -0.96 -2.76 -2.4 z M169.67999999999998 37.8 l0 -16.72 c0 -1.36 1.04 -2.44 2.4 -2.44 s2.44 1.08 2.44 2.44 l0 16.72 c0 1.36 -1.08 2.4 -2.44 2.4 c-1.32 0 -2.4 -1.04 -2.4 -2.4 z M187.92 40.36 c-3.56 0 -6.08 -1.56 -6.08 -6.2 l0 -11.12 l-0.8 0 c-1.16 0 -2.08 -0.92 -2.08 -2.08 s0.92 -2.08 2.08 -2.08 l0.8 0 l0 -3.6 c0 -1.32 1.08 -2.4 2.44 -2.4 c1.32 0 2.4 1.08 2.4 2.4 l0 3.6 l3.8 0 c1.16 0 2.12 0.92 2.12 2.08 s-0.96 2.08 -2.12 2.08 l-3.8 0 l0 10.36 c0 1.88 0.96 2.64 2.6 2.64 c0.56 0 1.04 -0.12 1.2 -0.12 c1.08 0 2.04 0.88 2.04 2 c0 0.88 -0.6 1.6 -1.28 1.88 c-1.04 0.36 -2.04 0.56 -3.32 0.56 z M201.11999999999998 46.519999999999996 c-1.36 0 -2.36 -0.2 -3.36 -0.6 c-0.72 -0.24 -1.52 -0.84 -1.52 -2 c0 -1.2 0.92 -2 1.96 -2 c0.4 0 0.64 0.08 0.88 0.16 c0.56 0.16 1 0.28 1.68 0.28 c1.44 0 2.2 -0.6 3 -2.24 l0.16 -0.44 l-7.84 -17.52 c-0.16 -0.36 -0.28 -0.84 -0.28 -1.16 c0 -1.36 1.04 -2.36 2.4 -2.36 c1.24 0 1.92 0.72 2.36 1.84 l5.68 14.04 l5.28 -14.04 c0.4 -1 1.08 -1.84 2.32 -1.84 c1.28 0 2.32 1 2.32 2.28 c0 0.4 -0.12 0.92 -0.2 1.16 l-7.72 18.52 c-1.8 4.32 -3.72 5.92 -7.12 5.92 z M235.79999999999998 40 c-1.4 0 -2.48 -1.08 -2.48 -2.48 l0 -23.04 c0 -1.4 1.08 -2.48 2.48 -2.48 l16.28 0 c1.2 0 2.2 1 2.2 2.2 c0 1.24 -1 2.2 -2.2 2.2 l-13.84 0 l0 7.28 l12.04 0 c1.2 0 2.2 1 2.2 2.24 c0 1.2 -1 2.16 -2.2 2.16 l-12.04 0 l0 7.52 l14.04 0 c1.2 0 2.2 1 2.2 2.2 c0 1.24 -1 2.2 -2.2 2.2 l-16.48 0 z M269.91999999999996 40.4 c-3.8 0 -7.4 -1.2 -10.52 -3.52 c-0.56 -0.4 -0.96 -1.08 -0.96 -1.88 c0 -1.28 1.04 -2.28 2.32 -2.28 c0.68 0 1.12 0.2 1.44 0.44 c2.32 1.84 4.8 2.88 7.84 2.88 s4.96 -1.44 4.96 -3.52 l0 -0.08 c0 -2 -1.12 -3.08 -6.32 -4.28 c-5.96 -1.44 -9.32 -3.2 -9.32 -8.36 l0 -0.08 c0 -4.8 4 -8.12 9.56 -8.12 c3.52 0 6.36 0.92 8.88 2.6 c0.56 0.32 1.08 1 1.08 1.96 c0 1.28 -1.04 2.28 -2.32 2.28 c-0.48 0 -0.88 -0.12 -1.28 -0.36 c-2.16 -1.4 -4.24 -2.12 -6.44 -2.12 c-2.88 0 -4.56 1.48 -4.56 3.32 l0 0.08 c0 2.16 1.28 3.12 6.68 4.4 c5.92 1.44 8.96 3.56 8.96 8.2 l0 0.08 c0 5.24 -4.12 8.36 -10 8.36 z M285.72 37.52 l0 -23.28 c0 -1.36 1.08 -2.44 2.48 -2.44 c1.36 0 2.44 1.08 2.44 2.44 l0 21.28 l12.68 0 c1.24 0 2.24 1 2.24 2.24 s-1 2.24 -2.24 2.24 l-15.12 0 c-1.4 0 -2.48 -1.08 -2.48 -2.48 z"></path></g>
			</g>
		</svg>
	